<svg viewBox="0 0 100 100" fill="none" xmlns="http://www.w3.org/2000/svg">
<circle cx="50" cy="50" r="50" fill="#EE4F4F"/>
<g clip-path="url(#clip0_4819_72332)">
<path d="M73.5415 32.2144L50.8966 24.6661C50.314 24.4769 49.6865 24.4769 49.1039 24.6661L26.5061 32.1908H26.459L26.341 32.238L26.1995 32.3088L26.0344 32.3795L25.94 32.4267L25.7985 32.5211L25.7277 32.5682L25.5862 32.6626C25.5862 32.6751 25.5812 32.6871 25.5724 32.6959C25.5635 32.7048 25.5515 32.7098 25.539 32.7098L25.3739 32.8513C25.3739 32.8576 25.3714 32.8636 25.367 32.868C25.3626 32.8724 25.3566 32.8749 25.3503 32.8749L25.1852 33.0636L25.138 33.1344C25.1134 33.1502 25.0923 33.1709 25.076 33.1953C25.0598 33.2196 25.0488 33.2471 25.0436 33.2759L24.9729 33.3467L24.9021 33.4646C24.8785 33.5118 24.8549 33.5354 24.8549 33.5589L24.7842 33.7005L24.737 33.7948L24.6662 34.0071C24.6503 34.036 24.6421 34.0685 24.6426 34.1015C24.6164 34.153 24.6004 34.209 24.5955 34.2666C24.5955 34.2902 24.5719 34.3374 24.5719 34.361C24.5719 34.3845 24.5483 34.4789 24.5483 34.5261V34.6204C24.5265 34.7131 24.5186 34.8085 24.5247 34.9035V53.7743C24.5247 54.525 24.8229 55.245 25.3538 55.7758C25.8846 56.3066 26.6046 56.6049 27.3553 56.6049C28.106 56.6049 28.826 56.3066 29.3569 55.7758C29.8877 55.245 30.1859 54.525 30.1859 53.7743V38.8192L35.7764 40.7062C34.0504 44.0126 33.5325 47.8177 34.3119 51.4651C35.0914 55.1125 37.1193 58.3735 40.0459 60.6857C36.0416 62.5485 32.6415 65.4992 30.2331 69.2011C30.0287 69.5124 29.8875 69.861 29.8178 70.2268C29.748 70.5927 29.751 70.9687 29.8266 71.3334C29.9022 71.6981 30.0488 72.0443 30.2582 72.3523C30.4676 72.6604 30.7356 72.9241 31.0469 73.1286C31.3582 73.333 31.7068 73.4741 32.0726 73.5439C32.4385 73.6136 32.8145 73.6106 33.1792 73.5351C33.5439 73.4595 33.8901 73.3129 34.1982 73.1035C34.5062 72.8941 34.7699 72.6261 34.9744 72.3148C36.5986 69.8077 38.8243 67.7469 41.4488 66.3201C44.0733 64.8933 47.013 64.1458 50.0002 64.1458C52.9875 64.1458 55.9272 64.8933 58.5517 66.3201C61.1761 67.7469 63.4018 69.8077 65.0261 72.3148C65.2871 72.7073 65.6413 73.0291 66.057 73.2514C66.4728 73.4737 66.9371 73.5895 67.4085 73.5886C67.952 73.5895 68.4843 73.4339 68.9418 73.1404C69.5719 72.726 70.0124 72.0791 70.1671 71.341C70.3218 70.6029 70.1781 69.8336 69.7674 69.2011C67.359 65.4992 63.9588 62.5485 59.9546 60.6857C62.8812 58.3735 64.9091 55.1125 65.6885 51.4651C66.468 47.8177 65.95 44.0126 64.2241 40.7062L73.5415 37.5926C74.1078 37.4064 74.6009 37.0463 74.9505 36.5634C75.3001 36.0805 75.4883 35.4996 75.4883 34.9035C75.4883 34.3074 75.3001 33.7265 74.9505 33.2436C74.6009 32.7607 74.1078 32.4005 73.5415 32.2144ZM50.0002 30.3273L63.7051 34.9035L58.7987 36.5311L50.0002 39.4797L41.2017 36.5311L36.2953 34.9035L50.0002 30.3273ZM60.3791 48.113C60.3775 49.7239 60.001 51.3122 59.2793 52.7524C58.5576 54.1925 57.5107 55.4449 56.2212 56.4104C54.9318 57.376 53.4354 58.0281 51.8503 58.3153C50.2653 58.6024 48.6351 58.5166 47.0889 58.0648C45.5428 57.613 44.123 56.8074 42.942 55.712C41.761 54.6165 40.8512 53.2612 40.2846 51.7532C39.718 50.2453 39.5101 48.6262 39.6775 47.0241C39.8449 45.422 40.3829 43.8808 41.2489 42.5226L49.1039 45.1409C49.6865 45.3301 50.314 45.3301 50.8966 45.1409L58.7515 42.5226C59.82 44.1909 60.3851 46.1318 60.3791 48.113Z" fill="white"/>
</g>
<defs>
<clipPath id="clip0_4819_72332">
<rect width="60.3864" height="60.3864" fill="white" transform="translate(19.8069 19.8068)"/>
</clipPath>
</defs>
</svg>
