<svg viewBox="0 0 100 100" fill="none" xmlns="http://www.w3.org/2000/svg">
<circle cx="50" cy="50" r="50" fill="#565B60"/>
<g clip-path="url(#clip0_4818_72120)">
<path d="M74.0606 58.3497C75.9482 52.9429 75.9482 47.056 74.0606 41.6491C74.0399 41.5439 74.0083 41.4411 73.9662 41.3424C72.1887 36.4116 68.9335 32.149 64.6446 29.1361C60.3557 26.1231 55.2418 24.5063 50.0004 24.5063C44.7589 24.5063 39.645 26.1231 35.3561 29.1361C31.0672 32.149 27.812 36.4116 26.0345 41.3424C25.9924 41.4411 25.9608 41.5439 25.9401 41.6491C24.0525 47.056 24.0525 52.9429 25.9401 58.3497C25.9608 58.455 25.9924 58.5577 26.0345 58.6564C27.812 63.5872 31.0672 67.8498 35.3561 70.8628C39.645 73.8757 44.7589 75.4925 50.0004 75.4925C55.2418 75.4925 60.3557 73.8757 64.6446 70.8628C68.9335 67.8498 72.1887 63.5872 73.9662 58.6564C74.0083 58.5577 74.0399 58.455 74.0606 58.3497ZM45.3299 60.3783H54.6709C53.5975 63.2057 52.0145 65.8122 50.0004 68.0682C47.9863 65.8122 46.4032 63.2057 45.3299 60.3783ZM43.773 54.7171C43.2698 51.5921 43.2698 48.4067 43.773 45.2817H56.2277C56.7309 48.4067 56.7309 51.5921 56.2277 54.7171H43.773ZM30.1861 49.9994C30.1927 48.4103 30.3827 46.8273 30.7522 45.2817H38.041C37.8434 46.8466 37.741 48.4221 37.7344 49.9994C37.7402 51.5768 37.8427 53.1523 38.041 54.7171H30.7522C30.3827 53.1715 30.1927 51.5885 30.1861 49.9994ZM54.6709 39.6205H45.3299C46.4032 36.7931 47.9863 34.1867 50.0004 31.9307C52.0145 34.1867 53.5975 36.7931 54.6709 39.6205ZM61.9597 45.2817H69.2485C70.0037 48.3815 70.0037 51.6173 69.2485 54.7171H61.9597C62.1581 53.1523 62.2605 51.5768 62.2664 49.9994C62.2597 48.4221 62.1573 46.8466 61.9597 45.2817ZM66.8661 39.6205H60.7095C59.7942 36.6916 58.4594 33.9107 56.7467 31.3645C60.9458 32.9116 64.5075 35.8175 66.8661 39.6205ZM43.2541 31.3645C41.5414 33.9107 40.2066 36.6916 39.2912 39.6205H33.1346C35.4932 35.8175 39.055 32.9116 43.2541 31.3645ZM33.1346 60.3783H39.2912C40.2066 63.3072 41.5414 66.0881 43.2541 68.6343C39.0504 67.0952 35.4863 64.1874 33.1346 60.3783ZM56.7467 68.6343C58.4594 66.0881 59.7942 63.3072 60.7095 60.3783H66.8661C64.5144 64.1874 60.9503 67.0952 56.7467 68.6343Z" fill="white"/>
</g>
<defs>
<clipPath id="clip0_4818_72120">
<rect width="60.3864" height="60.3864" fill="white" transform="translate(19.8069 19.8068)"/>
</clipPath>
</defs>
</svg>
