<svg viewBox="0 0 100 100" fill="none" xmlns="http://www.w3.org/2000/svg">
<circle cx="50" cy="50" r="50" fill="#EF8A2C"/>
<g clip-path="url(#clip0_4819_72334)">
<path d="M72.0788 39.338L52.7362 33.7004H52.7126L30.5631 27.2372C29.86 27.0321 29.1188 26.9935 28.3982 27.1246C27.6776 27.2556 26.9974 27.5526 26.4115 27.992C25.8256 28.4314 25.35 29.0013 25.0225 29.6563C24.6949 30.3114 24.5244 31.0338 24.5244 31.7662V64.4598C24.5188 65.1931 24.6869 65.9174 25.0149 66.5734C25.3429 67.2293 25.8214 67.7984 26.4115 68.2339C27.2167 68.8508 28.2041 69.1827 29.2185 69.1774C29.6738 69.1843 30.1273 69.1206 30.5631 68.9887L49.0564 63.6106V65.0966C49.0626 66.3459 49.5617 67.5423 50.445 68.4257C51.3284 69.3091 52.5248 69.8081 53.7741 69.8143H61.3224C62.5717 69.8081 63.7681 69.3091 64.6515 68.4257C65.5349 67.5423 66.0339 66.3459 66.0401 65.0966V58.657L72.0788 56.8879C73.0567 56.5987 73.9154 56.0018 74.5273 55.186C75.1392 54.3701 75.4717 53.3787 75.4755 52.3589V43.867C75.4717 42.8472 75.1392 41.8558 74.5273 41.0399C73.9154 40.2241 73.0567 39.6272 72.0788 39.338ZM30.1857 63.2096V33.0163L49.0564 38.5125V57.7135L30.1857 63.2096ZM60.3789 64.1531H54.7177V61.9594L60.3789 60.3082V64.1531ZM69.8143 51.6512L62.3839 53.8214H62.3603L54.7177 56.0623V40.1636L69.8143 44.5747V51.6512Z" fill="white"/>
</g>
<defs>
<clipPath id="clip0_4819_72334">
<rect width="60.3864" height="60.3864" fill="white" transform="translate(19.8069 19.8068)"/>
</clipPath>
</defs>
</svg>
