<svg viewBox="0 0 100 100" fill="none" xmlns="http://www.w3.org/2000/svg">
<circle cx="50" cy="50" r="50" fill="#B53DFF"/>
<g clip-path="url(#clip0_4819_72338)">
<g clip-path="url(#clip1_4819_72338)">
<path fill-rule="evenodd" clip-rule="evenodd" d="M44.8188 46.5669C44.8084 46.641 44.7996 46.7158 44.7924 46.7911C44.7766 46.9562 44.7684 47.1242 44.7684 47.295C44.7684 49.3115 45.9193 51.0659 47.6173 51.9329C48.3286 52.2961 49.1357 52.5024 49.9999 52.5024C50.8641 52.5024 51.6713 52.2961 52.3825 51.9329C54.0805 51.0659 55.2314 49.3115 55.2314 47.295C55.2314 47.1242 55.2232 46.9562 55.2074 46.7911C55.2002 46.7158 55.1914 46.641 55.181 46.5669C54.9586 44.9769 54.0088 43.6067 52.6645 42.8123C51.8865 42.3526 50.9788 42.0877 49.9999 42.0877C49.021 42.0877 48.1133 42.3526 47.3353 42.8123C45.991 43.6067 45.0412 44.9769 44.8188 46.5669ZM37.7787 33.9766C34.8876 33.9766 32.5472 36.3098 32.5472 39.1839C32.5472 41.2003 33.6981 42.9547 35.3961 43.8217C36.1074 44.1849 36.9146 44.3912 37.7787 44.3912C38.3471 44.3912 38.8905 44.302 39.398 44.1378C40.0386 42.0008 41.3105 40.1403 42.9937 38.7672C42.7807 36.0879 40.5288 33.9766 37.7787 33.9766ZM43.4785 38.984C41.7128 40.3595 40.3944 42.2832 39.7839 44.5028C39.1622 44.7353 38.4874 44.863 37.7787 44.863C36.8384 44.863 35.9578 44.6382 35.1816 44.2419C33.3323 43.2976 32.0755 41.3848 32.0755 39.1839C32.0755 36.0474 34.6289 33.5048 37.7787 33.5048C40.8614 33.5048 43.3728 35.9401 43.4785 38.984ZM48.4806 36.3798C47.2349 31.6514 42.9151 28.1653 37.7787 28.1653C31.6704 28.1653 26.7153 33.0966 26.7153 39.1839C26.7153 41.5343 27.4549 43.7124 28.7125 45.4998C23.4556 48.5916 19.9257 54.2918 19.9257 60.8184C19.9257 62.4231 21.2266 63.724 22.8314 63.724H32.9251C32.419 65.3719 32.1469 67.1204 32.1469 68.9295C32.1469 70.5343 33.4478 71.8352 35.0525 71.8352H64.9473C66.5521 71.8352 67.853 70.5343 67.853 68.9295C67.853 67.1204 67.5808 65.3719 67.0748 63.724H77.1685C78.7733 63.724 80.0742 62.4231 80.0742 60.8184C80.0742 54.2918 76.5443 48.5916 71.2873 45.4997C72.545 43.7124 73.2846 41.5343 73.2846 39.1839C73.2846 33.0966 68.3294 28.1653 62.2211 28.1653C57.0847 28.1653 52.7649 31.6514 51.5192 36.3798C51.022 36.3116 50.5147 36.2764 49.9999 36.2764C49.4851 36.2764 48.9778 36.3116 48.4806 36.3798ZM51.8754 36.9135C52.9183 32.1798 57.1542 28.6371 62.2211 28.6371C68.0707 28.6371 72.8128 33.359 72.8128 39.1839C72.8128 41.4497 72.0951 43.5473 70.8756 45.2649C70.7837 45.3944 70.6889 45.5218 70.5913 45.6469C70.7307 45.7233 70.869 45.8016 71.0061 45.8817C76.1487 48.8869 79.6024 54.4491 79.6024 60.8184C79.6024 62.1625 78.5127 63.2522 77.1685 63.2522H66.4238C66.4783 63.4085 66.5306 63.5658 66.5806 63.724C67.1008 65.368 67.3812 67.1172 67.3812 68.9295C67.3812 70.2737 66.2915 71.3634 64.9473 71.3634H35.0525C33.7083 71.3634 32.6187 70.2737 32.6187 68.9295C32.6187 67.1172 32.8991 65.368 33.4193 63.724C33.4693 63.5658 33.5216 63.4085 33.5761 63.2522H22.8314C21.4872 63.2522 20.3975 62.1625 20.3975 60.8184C20.3975 54.4491 23.8512 48.8869 28.9937 45.8818C29.1308 45.8016 29.2691 45.7233 29.4085 45.6469C29.311 45.5218 29.2162 45.3944 29.1242 45.2649C27.9047 43.5473 27.187 41.4497 27.187 39.1839C27.187 33.359 31.9291 28.6371 37.7787 28.6371C42.8456 28.6371 47.0815 32.1798 48.1244 36.9135C48.7337 36.8049 49.3605 36.7482 49.9999 36.7482C50.6393 36.7482 51.2661 36.8049 51.8754 36.9135ZM60.6019 44.1378C61.1094 44.302 61.6527 44.3912 62.2211 44.3912C63.0852 44.3912 63.8924 44.1849 64.6037 43.8217C66.3017 42.9547 67.4526 41.2003 67.4526 39.1839C67.4526 36.3098 65.1122 33.9766 62.2211 33.9766C59.471 33.9766 57.2191 36.0879 57.0061 38.7672C58.6893 40.1403 59.9612 42.0008 60.6019 44.1378ZM56.5213 38.984C58.287 40.3595 59.6054 42.2832 60.2159 44.5028C60.8376 44.7353 61.5124 44.863 62.2211 44.863C63.1615 44.863 64.042 44.6382 64.8183 44.2419C66.6675 43.2976 67.9243 41.3848 67.9243 39.1839C67.9243 36.0474 65.3709 33.5048 62.2211 33.5048C59.1384 33.5048 56.627 35.9401 56.5213 38.984ZM58.3703 53.7578C58.5098 53.8342 58.6481 53.9125 58.7852 53.9926C60.7238 55.1254 62.421 56.6208 63.7835 58.3845H73.3248C73.9199 58.3845 74.368 57.8388 74.1978 57.2685C73.032 53.3633 69.9925 50.2591 66.1157 48.9941C64.908 49.4698 63.5929 49.7307 62.2211 49.7307C61.5819 49.7307 60.955 49.6741 60.3455 49.5655C60.0384 50.9592 59.4544 52.2492 58.6546 53.3758C58.5627 53.5053 58.4679 53.6327 58.3703 53.7578ZM59.0664 53.6106C60.9722 54.7313 62.6492 56.1939 64.0133 57.9127H73.3248C73.6375 57.9127 73.8163 57.6399 73.7457 57.4034C72.6404 53.7005 69.7821 50.7445 66.127 49.4953C64.9098 49.9528 63.5922 50.2025 62.2211 50.2025C61.7063 50.2025 61.199 50.1673 60.7017 50.0991C60.3654 51.3753 59.8052 52.5605 59.0664 53.6106ZM53.9057 57.6065C52.6885 58.064 51.371 58.3136 49.9999 58.3136C48.6289 58.3136 47.3113 58.064 46.0941 57.6065C43.5421 58.479 41.3725 60.1864 39.9197 62.4058C39.2968 63.3574 38.8064 64.4021 38.4744 65.5149C38.404 65.7512 38.5825 66.0239 38.8954 66.0239H61.1045C61.4173 66.0239 61.5959 65.7512 61.5254 65.5149C61.1935 64.4021 60.7031 63.3574 60.0801 62.4058C58.6274 60.1864 56.4578 58.4789 53.9057 57.6065ZM53.8945 57.1053C52.6868 57.581 51.3717 57.8419 49.9999 57.8419C48.6281 57.8419 47.3131 57.581 46.1054 57.1054C43.3817 57.9943 41.0655 59.794 39.525 62.1474C38.8775 63.1365 38.3676 64.2227 38.0224 65.3801C37.8523 65.9503 38.3004 66.4957 38.8954 66.4957H61.1045C61.6995 66.4957 62.1476 65.9503 61.9775 65.3801C61.6323 64.2227 61.1223 63.1365 60.4749 62.1474C58.9344 59.794 56.6182 57.9943 53.8945 57.1053ZM39.2981 50.0991C38.8008 50.1673 38.2935 50.2025 37.7787 50.2025C36.4077 50.2025 35.09 49.9528 33.8729 49.4953C30.2178 50.7445 27.3595 53.7005 26.2542 57.4034C26.1836 57.6399 26.3623 57.9127 26.6751 57.9127H35.9866C37.3507 56.1939 39.0277 54.7314 40.9335 53.6106C40.1946 52.5605 39.6344 51.3753 39.2981 50.0991ZM41.3452 53.3758C40.5454 52.2493 39.9614 50.9592 39.6543 49.5655C39.0448 49.6741 38.4179 49.7307 37.7787 49.7307C36.4069 49.7307 35.0918 49.4699 33.8841 48.9942C30.0073 50.2592 26.9678 53.3633 25.8021 57.2685C25.6319 57.8388 26.08 58.3845 26.6751 58.3845H36.2163C37.5789 56.6209 39.2761 55.1254 41.2147 53.9927C41.3518 53.9126 41.4901 53.8343 41.6295 53.7578C41.532 53.6327 41.4371 53.5053 41.3452 53.3758ZM47.0953 42.4062C47.9441 41.9046 48.9344 41.616 49.9999 41.616C51.0654 41.616 52.0557 41.9046 52.9045 42.4062C54.3684 43.2712 55.4053 44.7646 55.6482 46.5015C55.6595 46.5824 55.6692 46.664 55.677 46.7461C55.6943 46.9261 55.7032 47.1092 55.7032 47.295C55.7032 49.496 54.4464 51.4088 52.5971 52.353C51.8208 52.7494 50.9403 52.9741 49.9999 52.9741C49.0595 52.9741 48.179 52.7494 47.4027 52.353C45.5534 51.4088 44.2966 49.496 44.2966 47.295C44.2966 47.1092 44.3055 46.9261 44.3228 46.7461C44.3306 46.664 44.3403 46.5824 44.3516 46.5015C44.5945 44.7646 45.6314 43.2712 47.0953 42.4062Z" fill="white"/>
<path fill-rule="evenodd" clip-rule="evenodd" d="M62.2211 28.6371C57.1542 28.6371 52.9183 32.1798 51.8754 36.9135C51.2661 36.8049 50.6393 36.7482 49.9999 36.7482C49.3605 36.7482 48.7337 36.8049 48.1244 36.9135C47.0815 32.1798 42.8456 28.6371 37.7787 28.6371C31.9291 28.6371 27.187 33.359 27.187 39.1839C27.187 41.4497 27.9047 43.5473 29.1242 45.2649C29.2162 45.3944 29.311 45.5218 29.4085 45.6469C29.2691 45.7233 29.1308 45.8016 28.9937 45.8818C23.8512 48.8869 20.3975 54.4491 20.3975 60.8184C20.3975 62.1625 21.4872 63.2522 22.8314 63.2522H33.5761C33.5216 63.4085 33.4693 63.5658 33.4193 63.724C32.8991 65.368 32.6187 67.1172 32.6187 68.9295C32.6187 70.2737 33.7083 71.3634 35.0525 71.3634H64.9473C66.2915 71.3634 67.3812 70.2737 67.3812 68.9295C67.3812 67.1172 67.1008 65.368 66.5806 63.724C66.5306 63.5658 66.4783 63.4085 66.4238 63.2522H77.1685C78.5127 63.2522 79.6024 62.1625 79.6024 60.8184C79.6024 54.4491 76.1487 48.8869 71.0061 45.8817C70.869 45.8016 70.7307 45.7233 70.5913 45.6469C70.6889 45.5218 70.7837 45.3944 70.8756 45.2649C72.0951 43.5473 72.8128 41.4497 72.8128 39.1839C72.8128 33.359 68.0707 28.6371 62.2211 28.6371ZM43.4785 38.984C41.7128 40.3595 40.3944 42.2832 39.7839 44.5028C39.1622 44.7353 38.4874 44.863 37.7787 44.863C36.8384 44.863 35.9578 44.6382 35.1816 44.2419C33.3323 43.2976 32.0755 41.3848 32.0755 39.1839C32.0755 36.0474 34.6289 33.5048 37.7787 33.5048C40.8614 33.5048 43.3728 35.9401 43.4785 38.984ZM60.2159 44.5028C59.6054 42.2832 58.287 40.3595 56.5213 38.984C56.627 35.9401 59.1384 33.5048 62.2211 33.5048C65.3709 33.5048 67.9243 36.0474 67.9243 39.1839C67.9243 41.3848 66.6675 43.2976 64.8183 44.2419C64.042 44.6382 63.1615 44.863 62.2211 44.863C61.5124 44.863 60.8376 44.7353 60.2159 44.5028ZM58.7852 53.9926C58.6481 53.9125 58.5098 53.8342 58.3703 53.7578C58.4679 53.6327 58.5627 53.5053 58.6546 53.3758C59.4544 52.2492 60.0384 50.9592 60.3455 49.5655C60.955 49.6741 61.5819 49.7307 62.2211 49.7307C63.5929 49.7307 64.908 49.4698 66.1157 48.9941C69.9925 50.2591 73.032 53.3633 74.1978 57.2685C74.368 57.8388 73.9199 58.3845 73.3248 58.3845H63.7835C62.421 56.6208 60.7238 55.1254 58.7852 53.9926ZM49.9999 57.8419C51.3717 57.8419 52.6868 57.581 53.8945 57.1053C56.6182 57.9943 58.9344 59.794 60.4749 62.1474C61.1223 63.1365 61.6323 64.2227 61.9775 65.3801C62.1476 65.9503 61.6995 66.4957 61.1045 66.4957H38.8954C38.3004 66.4957 37.8523 65.9503 38.0224 65.3801C38.3676 64.2227 38.8775 63.1365 39.525 62.1474C41.0655 59.794 43.3817 57.9943 46.1054 57.1054C47.3131 57.581 48.6281 57.8419 49.9999 57.8419ZM39.6543 49.5655C39.9614 50.9592 40.5454 52.2493 41.3452 53.3758C41.4371 53.5053 41.532 53.6327 41.6295 53.7578C41.4901 53.8343 41.3518 53.9126 41.2147 53.9927C39.2761 55.1254 37.5789 56.6209 36.2163 58.3845H26.6751C26.08 58.3845 25.6319 57.8388 25.8021 57.2685C26.9678 53.3633 30.0073 50.2592 33.8841 48.9942C35.0918 49.4699 36.4069 49.7307 37.7787 49.7307C38.4179 49.7307 39.0448 49.6741 39.6543 49.5655ZM47.0953 42.4062C47.9441 41.9046 48.9344 41.616 49.9999 41.616C51.0654 41.616 52.0557 41.9046 52.9045 42.4062C54.3684 43.2712 55.4053 44.7646 55.6482 46.5015C55.6595 46.5824 55.6692 46.664 55.677 46.7461C55.6943 46.9261 55.7032 47.1092 55.7032 47.295C55.7032 49.496 54.4464 51.4088 52.5971 52.353C51.8208 52.7494 50.9403 52.9741 49.9999 52.9741C49.0595 52.9741 48.179 52.7494 47.4027 52.353C45.5534 51.4088 44.2966 49.496 44.2966 47.295C44.2966 47.1092 44.3055 46.9261 44.3228 46.7461C44.3306 46.664 44.3403 46.5824 44.3516 46.5015C44.5945 44.7646 45.6314 43.2712 47.0953 42.4062Z" fill="white"/>
</g>
</g>
<defs>
<clipPath id="clip0_4819_72338">
<rect width="60.3864" height="60.3864" fill="white" transform="translate(19.8068 19.8068)"/>
</clipPath>
<clipPath id="clip1_4819_72338">
<rect width="60.3864" height="60.3864" fill="white" transform="translate(19.8068 19.8068)"/>
</clipPath>
</defs>
</svg>
