<svg width="770" height="153" viewBox="0 0 770 153" fill="none" xmlns="http://www.w3.org/2000/svg">
<path d="M57.5024 41.506C53.3998 41.506 49.3895 40.2895 45.9784 38.0102C42.5672 35.731 39.9086 32.4915 38.3387 28.7012C36.7687 24.911 36.3579 20.7404 37.1583 16.7167C37.9586 12.693 39.9342 8.99705 42.8351 6.09614C45.736 3.19523 49.432 1.21968 53.4557 0.419324C57.4793 -0.381035 61.65 0.0297436 65.4402 1.5997C69.2304 3.16966 72.47 5.8283 74.7492 9.2394C77.0285 12.6505 78.245 16.6609 78.245 20.7634C78.2403 26.2632 76.0534 31.5364 72.1644 35.4254C68.2754 39.3144 63.0022 41.5013 57.5024 41.506V41.506Z" fill="#FFC700"/>
<path d="M21.4663 77.7204C32.9221 77.7204 42.2089 68.4336 42.2089 56.9777C42.2089 45.5219 32.9221 36.2351 21.4663 36.2351C10.0104 36.2351 0.723633 45.5219 0.723633 56.9777C0.723633 68.4336 10.0104 77.7204 21.4663 77.7204Z" fill="#FFC700"/>
<path d="M57.5023 115.651C68.9582 115.651 78.245 106.364 78.245 94.9082C78.245 83.4523 68.9582 74.1655 57.5023 74.1655C46.0465 74.1655 36.7597 83.4523 36.7597 94.9082C36.7597 106.364 46.0465 115.651 57.5023 115.651Z" fill="#3A7DFF"/>
<path d="M93.9136 152.062C105.369 152.062 114.656 142.775 114.656 131.319C114.656 119.864 105.369 110.577 93.9136 110.577C82.4578 110.577 73.171 119.864 73.171 131.319C73.171 142.775 82.4578 152.062 93.9136 152.062Z" fill="#3A7DFF"/>
<path d="M164.864 62.9082C159.531 62.9082 155.347 61.4085 152.31 58.409C149.311 55.4095 147.811 51.0768 147.811 45.4111V23.4702H155.032V45.1334C155.032 49.1327 155.884 52.0396 157.587 53.8542C159.327 55.6687 161.772 56.5759 164.919 56.5759C168.067 56.5759 170.492 55.6687 172.196 53.8542C173.899 52.0396 174.751 49.1327 174.751 45.1334V23.4702H181.861V45.4111C181.861 51.0768 180.343 55.4095 177.306 58.409C174.307 61.4085 170.159 62.9082 164.864 62.9082ZM208.138 32.3577C210.508 32.3577 212.619 32.8205 214.47 33.7463C216.359 34.6721 217.84 36.0978 218.914 38.0234C219.988 39.912 220.525 42.356 220.525 45.3555V62.3528H213.581V46.2443C213.581 43.6151 212.952 41.6524 211.693 40.3564C210.471 39.0603 208.749 38.4122 206.527 38.4122C204.898 38.4122 203.453 38.7455 202.194 39.4121C200.935 40.0786 199.954 41.0785 199.25 42.4116C198.584 43.7077 198.251 45.3555 198.251 47.3552V62.3528H191.307V32.6909H197.917V40.6896L196.751 38.2456C197.788 36.357 199.287 34.9128 201.25 33.913C203.25 32.8761 205.546 32.3577 208.138 32.3577ZM229.333 62.3528V32.6909H236.276V62.3528H229.333ZM232.832 27.8028C231.536 27.8028 230.462 27.3955 229.61 26.5808C228.796 25.7661 228.388 24.7848 228.388 23.6368C228.388 22.4519 228.796 21.4705 229.61 20.6929C230.462 19.8782 231.536 19.4709 232.832 19.4709C234.128 19.4709 235.184 19.8597 235.998 20.6373C236.85 21.378 237.276 22.3222 237.276 23.4702C237.276 24.6922 236.869 25.7291 236.054 26.5808C235.239 27.3955 234.165 27.8028 232.832 27.8028ZM253.277 62.3528L240.557 32.6909H247.778L258.72 58.8534H255.165L266.497 32.6909H273.162L260.442 62.3528H253.277ZM290.631 62.7416C287.335 62.7416 284.446 62.0936 281.965 60.7975C279.521 59.4644 277.614 57.6498 276.244 55.3539C274.911 53.058 274.244 50.4473 274.244 47.5219C274.244 44.5594 274.892 41.9487 276.188 39.6898C277.522 37.3939 279.336 35.5979 281.632 34.3018C283.965 33.0057 286.613 32.3577 289.575 32.3577C292.464 32.3577 295.037 32.9872 297.296 34.2462C299.555 35.5053 301.332 37.2828 302.629 39.5787C303.925 41.8746 304.573 44.5779 304.573 47.6885C304.573 47.9847 304.554 48.318 304.517 48.6883C304.517 49.0586 304.499 49.4104 304.462 49.7437H279.743V45.1334H300.796L298.074 46.5776C298.111 44.8741 297.759 43.3744 297.018 42.0783C296.278 40.7822 295.259 39.7639 293.963 39.0232C292.704 38.2826 291.242 37.9123 289.575 37.9123C287.872 37.9123 286.372 38.2826 285.076 39.0232C283.817 39.7639 282.817 40.8007 282.076 42.1338C281.373 43.4299 281.021 44.9667 281.021 46.7442V47.8551C281.021 49.6326 281.428 51.2064 282.243 52.5766C283.058 53.9467 284.206 55.0021 285.687 55.7427C287.168 56.4834 288.872 56.8537 290.797 56.8537C292.464 56.8537 293.963 56.5945 295.296 56.076C296.63 55.5576 297.815 54.7429 298.851 53.632L302.573 57.9091C301.24 59.4644 299.555 60.6679 297.518 61.5196C295.519 62.3343 293.223 62.7416 290.631 62.7416ZM311.242 62.3528V32.6909H317.852V40.8563L317.075 38.4678C317.963 36.4681 319.352 34.9498 321.241 33.913C323.166 32.8761 325.555 32.3577 328.406 32.3577V38.9677C328.11 38.8936 327.832 38.8566 327.573 38.8566C327.314 38.8196 327.054 38.801 326.795 38.801C324.166 38.801 322.074 39.5787 320.518 41.134C318.963 42.6523 318.186 44.9297 318.186 47.9662V62.3528H311.242ZM343.733 62.7416C341.252 62.7416 338.863 62.4268 336.567 61.7973C334.308 61.1308 332.512 60.3346 331.179 59.4088L333.845 54.1319C335.178 54.9836 336.771 55.6872 338.622 56.2427C340.474 56.7981 342.325 57.0759 344.177 57.0759C346.362 57.0759 347.936 56.7796 348.898 56.1871C349.898 55.5946 350.398 54.7985 350.398 53.7986C350.398 52.9839 350.065 52.3729 349.398 51.9656C348.732 51.5212 347.862 51.1879 346.788 50.9657C345.714 50.7436 344.51 50.5399 343.177 50.3547C341.881 50.1696 340.566 49.9289 339.233 49.6326C337.937 49.2993 336.752 48.8365 335.678 48.244C334.604 47.6144 333.734 46.7812 333.068 45.7444C332.401 44.7075 332.068 43.3373 332.068 41.6339C332.068 39.7453 332.605 38.116 333.679 36.7458C334.753 35.3386 336.252 34.2647 338.178 33.5241C340.141 32.7465 342.455 32.3577 345.121 32.3577C347.121 32.3577 349.139 32.5798 351.176 33.0242C353.213 33.4686 354.897 34.0981 356.231 34.9128L353.564 40.1897C352.157 39.338 350.731 38.764 349.287 38.4678C347.88 38.1345 346.473 37.9679 345.066 37.9679C342.955 37.9679 341.381 38.2826 340.344 38.9121C339.344 39.5417 338.844 40.3378 338.844 41.3006C338.844 42.1894 339.178 42.8559 339.844 43.3003C340.511 43.7447 341.381 44.0965 342.455 44.3557C343.529 44.6149 344.714 44.8371 346.01 45.0223C347.343 45.1704 348.658 45.4111 349.954 45.7444C351.25 46.0776 352.435 46.5405 353.509 47.133C354.62 47.6885 355.508 48.4847 356.175 49.5215C356.842 50.5584 357.175 51.91 357.175 53.5764C357.175 55.428 356.619 57.0388 355.508 58.409C354.435 59.7791 352.898 60.853 350.898 61.6307C348.898 62.3713 346.51 62.7416 343.733 62.7416ZM363.154 62.3528V32.6909H370.098V62.3528H363.154ZM366.654 27.8028C365.358 27.8028 364.284 27.3955 363.432 26.5808C362.617 25.7661 362.21 24.7848 362.21 23.6368C362.21 22.4519 362.617 21.4705 363.432 20.6929C364.284 19.8782 365.358 19.4709 366.654 19.4709C367.95 19.4709 369.005 19.8597 369.82 20.6373C370.672 21.378 371.098 22.3222 371.098 23.4702C371.098 24.6922 370.69 25.7291 369.875 26.5808C369.061 27.3955 367.987 27.8028 366.654 27.8028ZM390.376 62.7416C387.117 62.7416 384.599 61.9084 382.821 60.242C381.044 58.5386 380.155 56.039 380.155 52.7432V26.1364H387.098V52.5766C387.098 53.9838 387.45 55.0762 388.154 55.8538C388.894 56.6315 389.913 57.0203 391.209 57.0203C392.764 57.0203 394.06 56.613 395.097 55.7983L397.041 60.7419C396.227 61.4085 395.227 61.9084 394.042 62.2417C392.857 62.575 391.635 62.7416 390.376 62.7416ZM375.267 38.4678V32.9131H395.042V38.4678H375.267ZM404.655 73.5176C403.21 73.5176 401.766 73.2769 400.322 72.7955C398.878 72.3141 397.674 71.6476 396.711 70.7959L399.489 65.6856C400.192 66.3151 400.988 66.815 401.877 67.1853C402.766 67.5556 403.673 67.7408 404.599 67.7408C405.858 67.7408 406.876 67.426 407.654 66.7965C408.432 66.167 409.154 65.1116 409.82 63.6304L411.542 59.7421L412.098 58.9089L423.318 32.6909H429.984L416.097 64.7413C415.171 66.9631 414.134 68.7221 412.987 70.0182C411.876 71.3143 410.617 72.2216 409.209 72.74C407.839 73.2584 406.321 73.5176 404.655 73.5176ZM410.765 63.4082L397.378 32.6909H404.599L415.486 58.2979L410.765 63.4082ZM463.006 62.7416C459.969 62.7416 457.266 62.0936 454.896 60.7975C452.526 59.4644 450.656 57.6498 449.286 55.3539C447.916 53.058 447.231 50.4473 447.231 47.5219C447.231 44.5594 447.916 41.9487 449.286 39.6898C450.656 37.3939 452.526 35.5979 454.896 34.3018C457.266 33.0057 459.969 32.3577 463.006 32.3577C466.079 32.3577 468.801 33.0057 471.171 34.3018C473.578 35.5979 475.448 37.3754 476.781 39.6342C478.151 41.8931 478.837 44.5223 478.837 47.5219C478.837 50.4473 478.151 53.058 476.781 55.3539C475.448 57.6498 473.578 59.4644 471.171 60.7975C468.801 62.0936 466.079 62.7416 463.006 62.7416ZM463.006 56.7981C464.709 56.7981 466.227 56.4278 467.561 55.6872C468.894 54.9466 469.931 53.8727 470.671 52.4655C471.449 51.0583 471.838 49.4104 471.838 47.5219C471.838 45.5962 471.449 43.9484 470.671 42.5782C469.931 41.171 468.894 40.0971 467.561 39.3565C466.227 38.6159 464.728 38.2456 463.061 38.2456C461.358 38.2456 459.84 38.6159 458.506 39.3565C457.21 40.0971 456.174 41.171 455.396 42.5782C454.618 43.9484 454.229 45.5962 454.229 47.5219C454.229 49.4104 454.618 51.0583 455.396 52.4655C456.174 53.8727 457.21 54.9466 458.506 55.6872C459.84 56.4278 461.339 56.7981 463.006 56.7981ZM486.42 62.3528V31.0245C486.42 27.9139 487.328 25.4328 489.142 23.5813C490.994 21.6927 493.623 20.7484 497.03 20.7484C498.252 20.7484 499.4 20.878 500.474 21.1372C501.585 21.3965 502.51 21.8038 503.251 22.3593L501.362 27.5806C500.844 27.1733 500.251 26.8771 499.585 26.6919C498.918 26.4697 498.233 26.3586 497.53 26.3586C496.085 26.3586 494.993 26.766 494.252 27.5806C493.512 28.3583 493.142 29.5433 493.142 31.1356V34.4684L493.364 37.579V62.3528H486.42ZM481.532 38.4678V32.9131H501.307V38.4678H481.532ZM531.164 62.3528L518.277 23.4702H525.776L537.274 58.6312H533.552L545.495 23.4702H552.16L563.769 58.6312H560.159L571.935 23.4702H578.822L565.936 62.3528H558.27L547.661 30.6357H549.661L538.885 62.3528H531.164ZM600.089 62.3528V56.3538L599.701 55.0762V44.5779C599.701 42.5412 599.09 40.9674 597.868 39.8564C596.646 38.7085 594.794 38.1345 592.313 38.1345C590.646 38.1345 588.999 38.3937 587.369 38.9121C585.777 39.4306 584.425 40.1527 583.314 41.0785L580.593 36.0237C582.185 34.8017 584.073 33.8944 586.258 33.3019C588.48 32.6724 590.776 32.3577 593.146 32.3577C597.442 32.3577 600.756 33.3945 603.089 35.4683C605.459 37.505 606.644 40.6711 606.644 44.9667V62.3528H600.089ZM590.758 62.7416C588.536 62.7416 586.592 62.3713 584.925 61.6307C583.259 60.853 581.963 59.7976 581.037 58.4645C580.148 57.0944 579.704 55.5576 579.704 53.8542C579.704 52.1878 580.093 50.688 580.87 49.3549C581.685 48.0218 583 46.9664 584.814 46.1887C586.629 45.4111 589.036 45.0223 592.035 45.0223H600.645V49.6326H592.535C590.165 49.6326 588.573 50.0215 587.758 50.7991C586.943 51.5397 586.536 52.4655 586.536 53.5764C586.536 54.8355 587.036 55.8353 588.036 56.5759C589.036 57.3166 590.424 57.6869 592.202 57.6869C593.905 57.6869 595.423 57.298 596.757 56.5204C598.127 55.7427 599.108 54.5948 599.701 53.0765L600.867 57.2425C600.2 58.983 598.997 60.3346 597.257 61.2974C595.553 62.2602 593.387 62.7416 590.758 62.7416ZM615.555 62.3528V32.6909H622.165V40.8563L621.387 38.4678C622.276 36.4681 623.665 34.9498 625.553 33.913C627.479 32.8761 629.867 32.3577 632.719 32.3577V38.9677C632.422 38.8936 632.145 38.8566 631.885 38.8566C631.626 38.8196 631.367 38.801 631.108 38.801C628.479 38.801 626.386 39.5787 624.831 41.134C623.276 42.6523 622.498 44.9297 622.498 47.9662V62.3528H615.555ZM646.248 62.3528L635.361 32.6909H641.916L651.247 58.8534H648.137L657.913 32.6909H663.745L673.244 58.8534H670.189L679.798 32.6909H685.964L675.021 62.3528H668.356L659.69 39.1899H661.746L652.914 62.3528H646.248ZM690.738 62.3528V32.6909H697.681V62.3528H690.738ZM694.237 27.8028C692.941 27.8028 691.867 27.3955 691.016 26.5808C690.201 25.7661 689.794 24.7848 689.794 23.6368C689.794 22.4519 690.201 21.4705 691.016 20.6929C691.867 19.8782 692.941 19.4709 694.237 19.4709C695.533 19.4709 696.589 19.8597 697.403 20.6373C698.255 21.378 698.681 22.3222 698.681 23.4702C698.681 24.6922 698.274 25.7291 697.459 26.5808C696.644 27.3955 695.57 27.8028 694.237 27.8028ZM720.403 62.7416C717.293 62.7416 714.515 62.0936 712.071 60.7975C709.664 59.4644 707.776 57.6498 706.405 55.3539C705.035 53.058 704.35 50.4473 704.35 47.5219C704.35 44.5594 705.035 41.9487 706.405 39.6898C707.776 37.3939 709.664 35.5979 712.071 34.3018C714.515 33.0057 717.293 32.3577 720.403 32.3577C723.292 32.3577 725.828 32.9501 728.013 34.1351C730.235 35.2831 731.92 36.9865 733.068 39.2454L727.735 42.356C726.847 40.9488 725.754 39.912 724.458 39.2454C723.199 38.5789 721.829 38.2456 720.348 38.2456C718.644 38.2456 717.107 38.6159 715.737 39.3565C714.367 40.0971 713.293 41.171 712.516 42.5782C711.738 43.9484 711.349 45.5962 711.349 47.5219C711.349 49.4475 711.738 51.1139 712.516 52.521C713.293 53.8912 714.367 54.9466 715.737 55.6872C717.107 56.4278 718.644 56.7981 720.348 56.7981C721.829 56.7981 723.199 56.4648 724.458 55.7983C725.754 55.1317 726.847 54.0949 727.735 52.6877L733.068 55.7983C731.92 58.0202 730.235 59.7421 728.013 60.9641C725.828 62.1491 723.292 62.7416 720.403 62.7416ZM744.464 55.7427L744.631 47.0219L760.129 32.6909H768.461L755.296 45.911L751.63 48.9661L744.464 55.7427ZM738.799 62.3528V21.1372H745.742V62.3528H738.799ZM761.184 62.3528L750.352 48.9661L754.741 43.4114L769.627 62.3528H761.184ZM166.141 130.964C162.179 130.964 158.605 130.112 155.421 128.409C152.236 126.668 149.718 124.28 147.866 121.243C146.052 118.17 145.145 114.726 145.145 110.911C145.145 107.097 146.052 103.672 147.866 100.635C149.718 97.5618 152.236 95.1733 155.421 93.4699C158.605 91.7294 162.197 90.8592 166.197 90.8592C169.53 90.8592 172.548 91.4332 175.251 92.5811C177.954 93.7291 180.213 95.414 182.027 97.6359L176.528 102.746C173.825 99.6726 170.511 98.1358 166.586 98.1358C164.142 98.1358 161.938 98.6913 159.976 99.8022C158.05 100.876 156.532 102.376 155.421 104.301C154.347 106.227 153.81 108.43 153.81 110.911C153.81 113.393 154.347 115.596 155.421 117.522C156.532 119.447 158.05 120.965 159.976 122.076C161.938 123.15 164.142 123.687 166.586 123.687C170.511 123.687 173.825 122.132 176.528 119.021L182.027 124.187C180.213 126.409 177.954 128.094 175.251 129.242C172.548 130.39 169.511 130.964 166.141 130.964ZM200.575 130.742C197.502 130.742 194.724 130.094 192.243 128.797C189.799 127.464 187.874 125.65 186.466 123.354C185.059 121.021 184.356 118.373 184.356 115.411C184.356 112.485 185.059 109.856 186.466 107.523C187.874 105.19 189.799 103.376 192.243 102.08C194.724 100.784 197.502 100.135 200.575 100.135C203.686 100.135 206.482 100.784 208.963 102.08C211.444 103.376 213.369 105.19 214.74 107.523C216.147 109.856 216.85 112.485 216.85 115.411C216.85 118.373 216.147 121.021 214.74 123.354C213.369 125.65 211.444 127.464 208.963 128.797C206.482 130.094 203.686 130.742 200.575 130.742ZM200.575 123.965C202.094 123.965 203.445 123.613 204.63 122.91C205.852 122.206 206.796 121.206 207.463 119.91C208.167 118.614 208.518 117.114 208.518 115.411C208.518 113.707 208.167 112.226 207.463 110.967C206.796 109.671 205.852 108.671 204.63 107.968C203.445 107.264 202.094 106.912 200.575 106.912C199.094 106.912 197.742 107.264 196.52 107.968C195.335 108.671 194.391 109.671 193.687 110.967C193.021 112.226 192.688 113.707 192.688 115.411C192.688 117.114 193.021 118.614 193.687 119.91C194.391 121.206 195.335 122.206 196.52 122.91C197.742 123.613 199.094 123.965 200.575 123.965ZM260.918 100.135C264.621 100.135 267.565 101.246 269.75 103.468C271.972 105.653 273.083 108.93 273.083 113.3V130.353H264.862V114.466C264.862 112.059 264.343 110.263 263.306 109.078C262.27 107.856 260.807 107.245 258.918 107.245C256.844 107.245 255.178 107.93 253.919 109.301C252.697 110.671 252.086 112.689 252.086 115.355V130.353H243.865V114.466C243.865 112.059 243.347 110.263 242.31 109.078C241.31 107.856 239.847 107.245 237.922 107.245C235.848 107.245 234.181 107.93 232.922 109.301C231.7 110.671 231.089 112.689 231.089 115.355V130.353H222.869V100.524H230.701V108.634L229.256 106.246C230.256 104.246 231.7 102.728 233.589 101.691C235.515 100.654 237.718 100.135 240.199 100.135C243.013 100.135 245.42 100.839 247.42 102.246C249.457 103.653 250.808 105.746 251.475 108.523L248.475 107.634C249.475 105.301 251.086 103.468 253.308 102.135C255.53 100.802 258.067 100.135 260.918 100.135ZM298.512 130.742C295.957 130.742 293.717 130.186 291.791 129.075C289.902 127.964 288.421 126.261 287.347 123.965C286.31 121.669 285.792 118.836 285.792 115.466C285.792 111.985 286.292 109.115 287.292 106.857C288.329 104.598 289.791 102.913 291.68 101.802C293.605 100.691 295.883 100.135 298.512 100.135C301.326 100.135 303.863 100.765 306.122 102.024C308.381 103.283 310.158 105.079 311.454 107.412C312.788 109.708 313.454 112.393 313.454 115.466C313.454 118.503 312.788 121.188 311.454 123.521C310.158 125.816 308.381 127.594 306.122 128.853C303.863 130.112 301.326 130.742 298.512 130.742ZM281.182 100.524H289.014V106.857L288.847 115.466L289.402 124.132V141.129H281.182V100.524ZM297.179 123.965C298.66 123.965 299.993 123.613 301.178 122.91C302.4 122.206 303.345 121.225 304.011 119.966C304.715 118.669 305.067 117.17 305.067 115.466C305.067 113.763 304.715 112.263 304.011 110.967C303.345 109.671 302.4 108.671 301.178 107.968C299.993 107.264 298.66 106.912 297.179 106.912C295.698 106.912 294.346 107.264 293.124 107.968C291.939 108.671 290.995 109.671 290.291 110.967C289.625 112.263 289.291 113.763 289.291 115.466C289.291 117.17 289.625 118.669 290.291 119.966C290.995 121.225 291.939 122.206 293.124 122.91C294.346 123.613 295.698 123.965 297.179 123.965ZM332.032 130.742C328.107 130.742 324.996 129.631 322.7 127.409C320.404 125.187 319.256 121.854 319.256 117.41V100.524H327.477V116.188C327.477 118.707 328.014 120.577 329.088 121.799C330.162 123.021 331.717 123.632 333.754 123.632C335.939 123.632 337.679 122.947 338.975 121.576C340.308 120.169 340.975 118.096 340.975 115.355V100.524H349.251V130.353H341.364V122.187L342.808 124.576C341.808 126.576 340.345 128.112 338.42 129.186C336.531 130.223 334.402 130.742 332.032 130.742ZM369.501 130.742C365.983 130.742 363.279 129.853 361.391 128.075C359.502 126.298 358.558 123.687 358.558 120.243V93.9143H366.834V120.077C366.834 121.41 367.168 122.428 367.834 123.132C368.501 123.835 369.426 124.187 370.611 124.187C372.019 124.187 373.222 123.817 374.222 123.076L376.444 128.909C375.592 129.538 374.555 130.001 373.333 130.297C372.111 130.593 370.834 130.742 369.501 130.742ZM353.892 101.08H374.389V107.468H353.892V101.08ZM381.588 100.524H389.809V130.353H381.588V100.524ZM385.699 96.1917C384.144 96.1917 382.885 95.7473 381.922 94.8585C380.996 93.9698 380.533 92.8589 380.533 91.5257C380.533 90.1926 380.996 89.0817 381.922 88.193C382.885 87.2672 384.144 86.8043 385.699 86.8043C387.18 86.8043 388.402 87.2302 389.365 88.0819C390.365 88.9336 390.865 90.026 390.865 91.3591C390.865 92.7293 390.365 93.8772 389.365 94.803C388.402 95.7288 387.18 96.1917 385.699 96.1917ZM415.908 100.135C419.648 100.135 422.648 101.246 424.906 103.468C427.202 105.653 428.35 108.93 428.35 113.3V130.353H420.074V114.466C420.074 112.059 419.518 110.263 418.408 109.078C417.334 107.856 415.797 107.245 413.797 107.245C411.538 107.245 409.724 107.949 408.354 109.356C407.02 110.763 406.354 112.819 406.354 115.522V130.353H398.133V100.524H405.965V108.745L404.521 106.246C405.558 104.283 407.076 102.783 409.076 101.746C411.075 100.672 413.353 100.135 415.908 100.135ZM450.316 141.518C447.428 141.518 444.688 141.166 442.096 140.462C439.503 139.759 437.356 138.74 435.652 137.407L439.04 131.408C440.337 132.445 441.947 133.278 443.873 133.908C445.799 134.537 447.743 134.852 449.705 134.852C452.779 134.852 455.038 134.148 456.482 132.741C457.926 131.371 458.648 129.297 458.648 126.52V121.854L459.204 114.522L459.037 107.134V100.524H466.925V125.465C466.925 130.871 465.499 134.889 462.648 137.518C459.833 140.185 455.723 141.518 450.316 141.518ZM449.094 128.964C446.317 128.964 443.78 128.372 441.485 127.187C439.226 125.965 437.43 124.261 436.097 122.076C434.8 119.854 434.152 117.336 434.152 114.522C434.152 111.671 434.8 109.171 436.097 107.023C437.43 104.838 439.226 103.153 441.485 101.968C443.78 100.746 446.317 100.135 449.094 100.135C451.65 100.135 453.89 100.654 455.816 101.691C457.778 102.728 459.296 104.32 460.37 106.468C461.444 108.579 461.981 111.263 461.981 114.522C461.981 117.744 461.444 120.428 460.37 122.576C459.296 124.724 457.778 126.335 455.816 127.409C453.89 128.446 451.65 128.964 449.094 128.964ZM450.65 122.132C452.205 122.132 453.594 121.817 454.816 121.188C456.075 120.521 457.038 119.614 457.704 118.466C458.408 117.318 458.759 116.003 458.759 114.522C458.759 113.041 458.408 111.726 457.704 110.578C457.038 109.393 456.075 108.486 454.816 107.856C453.594 107.227 452.205 106.912 450.65 106.912C449.094 106.912 447.687 107.227 446.428 107.856C445.206 108.486 444.243 109.393 443.54 110.578C442.836 111.726 442.484 113.041 442.484 114.522C442.484 116.003 442.836 117.318 443.54 118.466C444.243 119.614 445.206 120.521 446.428 121.188C447.687 121.817 449.094 122.132 450.65 122.132ZM504.057 130.964C500.984 130.964 498.021 130.556 495.17 129.742C492.318 128.927 490.041 127.835 488.338 126.465L491.226 119.966C492.855 121.188 494.818 122.187 497.114 122.965C499.447 123.706 501.761 124.076 504.057 124.076C506.686 124.076 508.631 123.687 509.89 122.91C511.186 122.095 511.834 121.021 511.834 119.688C511.834 118.688 511.463 117.873 510.723 117.244C509.982 116.614 509.038 116.114 507.89 115.744C506.779 115.374 505.242 114.948 503.28 114.466C500.317 113.8 497.892 113.115 496.003 112.411C494.114 111.708 492.485 110.597 491.115 109.078C489.782 107.523 489.115 105.431 489.115 102.802C489.115 100.58 489.708 98.5616 490.893 96.7471C492.115 94.9326 493.929 93.5069 496.336 92.47C498.78 91.3961 501.78 90.8592 505.335 90.8592C507.779 90.8592 510.186 91.1554 512.556 91.7479C514.926 92.3034 516.981 93.1366 518.722 94.2475L516 100.802C514.259 99.8022 512.463 99.043 510.612 98.5246C508.797 98.0062 507.02 97.747 505.279 97.747C502.687 97.747 500.762 98.1728 499.502 99.0245C498.243 99.8762 497.614 101.006 497.614 102.413C497.614 103.413 497.984 104.227 498.725 104.857C499.465 105.449 500.373 105.931 501.447 106.301C502.558 106.671 504.131 107.079 506.168 107.523C509.093 108.153 511.501 108.838 513.389 109.578C515.278 110.282 516.907 111.393 518.277 112.911C519.647 114.429 520.332 116.485 520.332 119.077C520.332 121.299 519.721 123.317 518.499 125.131C517.277 126.909 515.444 128.335 513 129.408C510.556 130.445 507.575 130.964 504.057 130.964ZM540.093 130.742C537.019 130.742 534.242 130.094 531.761 128.797C529.317 127.464 527.391 125.65 525.984 123.354C524.577 121.021 523.873 118.373 523.873 115.411C523.873 112.485 524.577 109.856 525.984 107.523C527.391 105.19 529.317 103.376 531.761 102.08C534.242 100.784 537.019 100.135 540.093 100.135C543.203 100.135 545.999 100.784 548.48 102.08C550.961 103.376 552.887 105.19 554.257 107.523C555.664 109.856 556.368 112.485 556.368 115.411C556.368 118.373 555.664 121.021 554.257 123.354C552.887 125.65 550.961 127.464 548.48 128.797C545.999 130.094 543.203 130.742 540.093 130.742ZM540.093 123.965C541.611 123.965 542.963 123.613 544.148 122.91C545.37 122.206 546.314 121.206 546.98 119.91C547.684 118.614 548.036 117.114 548.036 115.411C548.036 113.707 547.684 112.226 546.98 110.967C546.314 109.671 545.37 108.671 544.148 107.968C542.963 107.264 541.611 106.912 540.093 106.912C538.611 106.912 537.26 107.264 536.038 107.968C534.853 108.671 533.908 109.671 533.205 110.967C532.538 112.226 532.205 113.707 532.205 115.411C532.205 117.114 532.538 118.614 533.205 119.91C533.908 121.206 534.853 122.206 536.038 122.91C537.26 123.613 538.611 123.965 540.093 123.965ZM576.606 130.742C573.421 130.742 570.57 130.094 568.052 128.797C565.571 127.501 563.626 125.687 562.219 123.354C560.812 121.021 560.108 118.373 560.108 115.411C560.108 112.485 560.812 109.856 562.219 107.523C563.626 105.19 565.571 103.376 568.052 102.08C570.57 100.784 573.421 100.135 576.606 100.135C579.716 100.135 582.42 100.784 584.716 102.08C587.012 103.339 588.696 105.153 589.77 107.523L583.438 111.023C582.623 109.652 581.624 108.634 580.439 107.968C579.254 107.264 577.957 106.912 576.55 106.912C574.995 106.912 573.606 107.264 572.384 107.968C571.162 108.634 570.199 109.615 569.496 110.911C568.792 112.208 568.44 113.707 568.44 115.411C568.44 117.151 568.792 118.669 569.496 119.966C570.199 121.262 571.162 122.262 572.384 122.965C573.606 123.632 574.995 123.965 576.55 123.965C577.957 123.965 579.254 123.632 580.439 122.965C581.624 122.262 582.623 121.225 583.438 119.854L589.77 123.354C588.696 125.687 586.993 127.501 584.66 128.797C582.364 130.094 579.679 130.742 576.606 130.742ZM594.878 100.524H603.099V130.353H594.878V100.524ZM598.989 96.1917C597.434 96.1917 596.175 95.7473 595.212 94.8585C594.286 93.9698 593.823 92.8589 593.823 91.5257C593.823 90.1926 594.286 89.0817 595.212 88.193C596.175 87.2672 597.434 86.8043 598.989 86.8043C600.47 86.8043 601.692 87.2302 602.655 88.0819C603.655 88.9336 604.155 90.026 604.155 91.3591C604.155 92.7293 603.655 93.8772 602.655 94.803C601.692 95.7288 600.47 96.1917 598.989 96.1917ZM625.976 130.742C622.643 130.742 619.7 130.094 617.144 128.797C614.589 127.501 612.608 125.687 611.201 123.354C609.831 121.021 609.146 118.373 609.146 115.411C609.146 112.485 609.812 109.856 611.145 107.523C612.515 105.19 614.404 103.376 616.811 102.08C619.218 100.784 621.921 100.135 624.921 100.135C627.846 100.135 630.476 100.765 632.808 102.024C635.141 103.283 636.974 105.079 638.308 107.412C639.641 109.745 640.307 112.467 640.307 115.577C640.307 115.948 640.289 116.318 640.252 116.688C640.252 117.059 640.233 117.429 640.196 117.799H615.811V112.856H635.808L632.642 114.355C632.642 112.837 632.327 111.467 631.698 110.245C631.068 109.023 630.161 108.079 628.976 107.412C627.791 106.746 626.439 106.412 624.921 106.412C623.44 106.412 622.107 106.746 620.922 107.412C619.737 108.079 618.811 109.023 618.144 110.245C617.515 111.467 617.2 112.874 617.2 114.466V115.8C617.2 117.466 617.57 118.929 618.311 120.188C619.051 121.447 620.107 122.428 621.477 123.132C622.847 123.798 624.439 124.132 626.254 124.132C627.809 124.132 629.198 123.891 630.42 123.409C631.679 122.928 632.827 122.169 633.864 121.132L638.252 125.965C636.882 127.52 635.16 128.705 633.086 129.52C631.05 130.334 628.68 130.742 625.976 130.742ZM658.299 130.742C654.781 130.742 652.078 129.853 650.189 128.075C648.301 126.298 647.356 123.687 647.356 120.243V93.9143H655.633V120.077C655.633 121.41 655.966 122.428 656.633 123.132C657.299 123.835 658.225 124.187 659.41 124.187C660.817 124.187 662.021 123.817 663.021 123.076L665.242 128.909C664.391 129.538 663.354 130.001 662.132 130.297C660.91 130.593 659.632 130.742 658.299 130.742ZM642.691 101.08H663.187V107.468H642.691V101.08ZM673.288 141.518C671.733 141.518 670.196 141.277 668.678 140.796C667.197 140.314 665.975 139.648 665.012 138.796L668.123 132.908C668.789 133.5 669.548 133.963 670.4 134.297C671.289 134.667 672.178 134.852 673.066 134.852C674.251 134.852 675.214 134.556 675.955 133.963C676.732 133.408 677.417 132.427 678.01 131.019L679.621 127.353L680.287 126.409L691.119 100.524H699.007L685.453 132.352C684.083 135.722 682.417 138.092 680.454 139.462C678.491 140.833 676.103 141.518 673.288 141.518ZM665.29 100.524H673.788L684.287 125.687L678.621 131.464L665.29 100.524Z" fill="white"/>
</svg>
