<svg viewBox="0 0 100 100" fill="none" xmlns="http://www.w3.org/2000/svg">
<circle cx="50" cy="50" r="50" fill="#FFC700"/>
<g clip-path="url(#clip0_4819_72336)">
<path d="M63.2099 46.3015H55.6616C54.9109 46.3015 54.1909 46.0032 53.6601 45.4724C53.1292 44.9415 52.831 44.2216 52.831 43.4708C52.831 42.7201 53.1292 42.0001 53.6601 41.4693C54.1909 40.9385 54.9109 40.6402 55.6616 40.6402H63.2099C63.9607 40.6402 64.6806 40.9385 65.2115 41.4693C65.7423 42.0001 66.0406 42.7201 66.0406 43.4708C66.0406 44.2216 65.7423 44.9415 65.2115 45.4724C64.6806 46.0032 63.9607 46.3015 63.2099 46.3015ZM44.3392 40.6402H43.3956V39.6967C43.3956 38.946 43.0974 38.226 42.5666 37.6951C42.0357 37.1643 41.3158 36.8661 40.565 36.8661C39.8143 36.8661 39.0943 37.1643 38.5635 37.6951C38.0326 38.226 37.7344 38.946 37.7344 39.6967V40.6402H36.7909C36.0401 40.6402 35.3202 40.9385 34.7893 41.4693C34.2585 42.0001 33.9603 42.7201 33.9603 43.4708C33.9603 44.2216 34.2585 44.9415 34.7893 45.4724C35.3202 46.0032 36.0401 46.3015 36.7909 46.3015H37.7344V47.245C37.7344 47.9957 38.0326 48.7157 38.5635 49.2465C39.0943 49.7774 39.8143 50.0756 40.565 50.0756C41.3158 50.0756 42.0357 49.7774 42.5666 49.2465C43.0974 48.7157 43.3956 47.9957 43.3956 47.245V46.3015H44.3392C45.0899 46.3015 45.8099 46.0032 46.3407 45.4724C46.8716 44.9415 47.1698 44.2216 47.1698 43.4708C47.1698 42.7201 46.8716 42.0001 46.3407 41.4693C45.8099 40.9385 45.0899 40.6402 44.3392 40.6402Z" fill="white"/>
<path fill-rule="evenodd" clip-rule="evenodd" d="M53.7038 58.5439H46.3407H46.3206L37.0032 68.8756L36.8616 69.0171C35.4424 70.4408 33.6056 71.3739 31.6189 71.6806C29.6323 71.9872 27.5996 71.6514 25.8172 70.722C24.0347 69.7926 22.5957 68.3182 21.7098 66.5138C20.8239 64.7093 20.5375 62.6691 20.8923 60.6904V60.6432L24.7372 40.8997V40.8525C25.3401 37.3475 27.1667 34.17 29.8921 31.8852C32.6176 29.6003 36.0651 28.3562 39.6215 28.3742L60.3793 28.3035C63.9119 28.3103 67.3309 29.552 70.0447 31.8134C72.7585 34.0749 74.5963 37.214 75.2401 40.6874L75.3073 40.8997L79.1523 60.6432V60.6904C79.507 62.6691 79.2206 64.7093 78.3347 66.5138C77.4488 68.3182 76.0098 69.7926 74.2274 70.722C72.4449 71.6514 70.4122 71.9872 68.4256 71.6806C66.4389 71.3739 64.6021 70.4408 63.1829 69.0171L63.0413 68.8756L53.7239 58.5439H53.7038ZM60.3793 33.9647C62.8817 33.9647 65.2817 34.9588 67.0511 36.7283C68.3973 38.0744 69.2946 39.7853 69.647 41.6287L69.7169 41.8904L73.5854 61.7047C73.72 62.4892 73.6031 63.2962 73.2515 64.0103C72.8998 64.7245 72.3314 65.3091 71.6275 65.6807C70.9236 66.0523 70.1202 66.1918 69.3322 66.0793C68.5442 65.9668 67.8119 65.608 67.2401 65.0543L57.0971 53.8498C56.8347 53.5519 56.5116 53.3136 56.1495 53.1508C55.7874 52.9881 55.3947 52.9047 54.9977 52.9062L54.7501 52.8614L45.0468 52.9062C44.6499 52.9047 44.2571 52.9881 43.895 53.1508C43.533 53.3136 43.2099 53.5519 42.9475 53.8498L32.8044 65.0543C32.2326 65.608 31.5003 65.9668 30.7124 66.0793C29.9244 66.1918 29.121 66.0523 28.417 65.6807C27.7131 65.3091 27.1447 64.7245 26.793 64.0103C26.4414 63.2962 26.3245 62.4892 26.4591 61.7047L30.3276 41.8904C30.3238 41.8343 30.3319 41.7781 30.3512 41.7253C30.7538 39.562 31.9016 37.6082 33.5952 36.2033C35.2888 34.7985 37.4211 34.0314 39.6215 34.0355L60.3793 33.9647Z" fill="white"/>
</g>
<defs>
<clipPath id="clip0_4819_72336">
<rect width="60.3864" height="60.3864" fill="white" transform="translate(19.8069 19.8068)"/>
</clipPath>
</defs>
</svg>
