<svg viewBox="0 0 100 100" fill="none" xmlns="http://www.w3.org/2000/svg">
<circle cx="50" cy="50" r="50" fill="#24D09D"/>
<g clip-path="url(#clip0_4819_72335)">
<path d="M67.8566 35.6817C66.8551 33.9493 65.2068 32.6854 63.2738 32.1679C61.3409 31.6504 59.2815 31.9216 57.5484 32.9218C56.9898 33.2396 56.4745 33.6281 56.0152 34.0777L52.5948 28.157C51.5934 26.4246 49.945 25.1607 48.0121 24.6432C46.0791 24.1257 44.0198 24.3968 42.2867 25.3971C41.5069 25.8462 40.8122 26.4291 40.2345 27.1191C39.5365 26.6606 38.773 26.3106 37.97 26.0812C36.5282 25.6949 35.0042 25.7447 33.5907 26.2244C32.1772 26.7041 30.9377 27.5921 30.0288 28.7762C29.1199 29.9603 28.5825 31.3872 28.4845 32.8767C28.3865 34.3661 28.7323 35.8512 29.4782 37.1442L29.5961 37.3564C28.9764 37.5203 28.3815 37.7662 27.827 38.0877C26.0993 39.0936 24.8396 40.7419 24.3226 42.673C23.8055 44.6041 24.0732 46.6613 25.0671 48.3958L34.9743 65.5682C37.852 70.5543 42.5927 74.193 48.1533 75.6838C53.7138 77.1745 59.6389 76.3953 64.625 73.5176C69.611 70.6398 73.2497 65.8991 74.7405 60.3386C76.2313 54.778 75.452 48.8529 72.5743 43.8669L67.8566 35.6817ZM69.2719 58.8691C68.4519 61.9352 66.7408 64.6892 64.355 66.7824C61.9693 68.8756 59.0162 70.214 55.8694 70.6282C52.7227 71.0424 49.5238 70.5137 46.6777 69.1091C43.8316 67.7045 41.4661 65.4871 39.8807 62.7376L29.9735 45.5652C29.7248 45.1332 29.6572 44.6203 29.7853 44.1386C29.9135 43.6569 30.2271 43.2454 30.6576 42.9941C31.0932 42.7443 31.6097 42.676 32.0952 42.804C32.5808 42.932 32.9965 43.246 33.2523 43.6782L38.4418 52.6654C38.4906 52.7756 38.5541 52.8787 38.6305 52.972L38.7012 53.0428C38.7432 53.116 38.7994 53.1801 38.8664 53.2315L38.9371 53.3022L39.173 53.5145H39.1966L39.4561 53.6797L39.5504 53.7268L39.7627 53.8448H39.8571L40.1637 53.9391H40.1873L40.4704 53.9863H41.2488C41.2488 53.9801 41.2513 53.9741 41.2557 53.9696C41.2601 53.9652 41.2661 53.9627 41.2724 53.9627L41.5554 53.9155H41.6734L41.8857 53.8212H41.98L42.3103 53.6561C42.7095 53.4268 43.0456 53.102 43.2885 52.711C43.5313 52.3199 43.6734 51.8747 43.702 51.4152C43.7506 50.8464 43.6185 50.2769 43.3246 49.7876L34.361 34.2664C34.1244 33.8344 34.0571 33.3299 34.1723 32.8511C34.2384 32.609 34.3517 32.3823 34.5055 32.184C34.6593 31.9856 34.8506 31.8196 35.0686 31.6952C35.2785 31.5672 35.5127 31.4842 35.7564 31.4517C36.0001 31.4192 36.2479 31.4379 36.4839 31.5065C36.9666 31.639 37.3802 31.9513 37.6398 32.3793L45.6598 46.2729L45.825 46.5324C46.1887 47.0321 46.7073 47.3977 47.3002 47.5726C47.893 47.7475 48.527 47.7218 49.1038 47.4995L49.5283 47.3108C49.9279 47.0795 50.2654 46.7549 50.5119 46.3646C50.7584 45.9743 50.9065 45.53 50.9437 45.0699C50.9709 44.5029 50.8403 43.9394 50.5662 43.4423L44.4332 32.8275C44.2278 32.3992 44.1915 31.9092 44.3314 31.4553C44.4714 31.0014 44.7774 30.617 45.1883 30.3788C45.5992 30.1406 46.0849 30.0661 46.5483 30.1702C47.0117 30.2743 47.4189 30.5493 47.6884 30.9404L54.765 43.1828L55.8736 45.1171C53.872 47.0153 52.5672 49.5319 52.1693 52.2617C51.7713 54.9915 52.3034 57.7758 53.6799 60.1665C54.0553 60.8171 54.6737 61.292 55.3992 61.4866C56.1247 61.6813 56.8978 61.5797 57.5484 61.2044C58.1991 60.829 58.6739 60.2106 58.8686 59.4851C59.0632 58.7596 58.9617 57.9865 58.5863 57.3359C57.7131 55.8213 57.4761 54.0223 57.9271 52.3332C58.3781 50.6442 59.4804 49.2028 60.9923 48.3251L61.2282 48.16C61.292 48.1346 61.3486 48.0941 61.3933 48.042L61.4641 47.9948L61.6292 47.8297H61.6528L61.8179 47.641H61.8415C61.8755 47.5749 61.9149 47.5118 61.9595 47.4523V47.4051L62.0774 47.2164C62.0789 47.1982 62.0873 47.1813 62.101 47.1692C62.1178 47.1 62.1501 47.0355 62.1953 46.9805C62.1943 46.9678 62.1958 46.9549 62.1999 46.9427C62.2039 46.9306 62.2104 46.9193 62.2189 46.9098L62.3605 46.3672V46.3201C62.3605 46.2493 62.3841 46.1785 62.3841 46.1078V45.7775C62.3879 45.6982 62.38 45.6187 62.3605 45.5416C62.356 45.4612 62.3401 45.3817 62.3133 45.3058L62.2425 45.0463C62.2425 45.0227 62.2189 45.0227 62.2189 44.9991L62.1482 44.7868L62.0066 44.5509L59.6714 40.3994C59.4348 39.9674 59.3675 39.4629 59.4827 38.9841C59.5489 38.742 59.6621 38.5153 59.8159 38.317C59.9697 38.1186 60.161 37.9526 60.379 37.8282C60.8111 37.5795 61.3239 37.5119 61.8057 37.64C62.2874 37.7682 62.6989 38.0818 62.9502 38.5123L67.6679 46.6975C68.7287 48.5187 69.4168 50.5327 69.6921 52.6222C69.9675 54.7118 69.8246 56.8353 69.2719 58.8691ZM75.0039 34.7617C74.5734 35.0095 74.0853 35.1397 73.5886 35.1391C73.0904 35.1443 72.6 35.0158 72.1685 34.7668C71.737 34.5179 71.3802 34.1577 71.1354 33.7238C70.1374 32.0047 68.7061 30.5773 66.9843 29.584C65.2625 28.5907 63.3104 28.0661 61.3226 28.0626C60.5718 28.0626 59.8519 27.7644 59.321 27.2335C58.7902 26.7027 58.492 25.9827 58.492 25.232C58.492 24.4813 58.7902 23.7613 59.321 23.2304C59.8519 22.6996 60.5718 22.4014 61.3226 22.4014C64.3043 22.4066 67.2325 23.1935 69.8151 24.6835C72.3978 26.1735 74.5448 28.3146 76.0418 30.8932C76.4113 31.5452 76.5095 32.3163 76.3153 33.0401C76.1211 33.7639 75.6501 34.3823 75.0039 34.7617ZM37.7577 78.2352C37.4932 78.5539 37.1615 78.8102 36.7863 78.9855C36.4111 79.1609 36.0017 79.251 35.5876 79.2495C34.9234 79.2493 34.2805 79.0155 33.7713 78.5891C30.9833 76.2503 28.628 73.4398 26.8127 70.2859C26.4373 69.6353 26.3358 68.8622 26.5304 68.1367C26.7251 67.4112 27.1999 66.7928 27.8506 66.4174C28.5012 66.0421 29.2743 65.9405 29.9998 66.1352C30.7252 66.3298 31.3437 66.8047 31.7191 67.4553C33.2094 70.0297 35.1325 72.3279 37.4039 74.2488C37.6915 74.4855 37.9291 74.7771 38.1028 75.1066C38.2766 75.4361 38.3831 75.7969 38.416 76.1679C38.4489 76.5389 38.4077 76.9128 38.2947 77.2677C38.1816 77.6227 37.9991 77.9516 37.7577 78.2352Z" fill="white"/>
</g>
<defs>
<clipPath id="clip0_4819_72335">
<rect width="60.3864" height="60.3864" fill="white" transform="translate(19.8069 19.8068)"/>
</clipPath>
</defs>
</svg>
