<svg viewBox="0 0 100 100" fill="none" xmlns="http://www.w3.org/2000/svg">
<circle cx="50" cy="50" r="50" fill="#FDD835"/>
<path d="M48.435 36.6029C46.9486 36.6029 45.4956 36.1613 44.2596 35.3338C43.0237 34.5064 42.0605 33.3303 41.4916 31.9543C40.9228 30.5783 40.774 29.0642 41.064 27.6034C41.354 26.1427 42.0697 24.8009 43.1208 23.7477C44.1718 22.6946 45.511 21.9774 46.9688 21.6868C48.4267 21.3962 49.9377 21.5454 51.311 22.1153C52.6843 22.6853 53.858 23.6505 54.6838 24.8889C55.5096 26.1272 55.9504 27.5831 55.9504 29.0725C55.9487 31.0692 55.1563 32.9836 53.7473 34.3954C52.3383 35.8073 50.4277 36.6012 48.435 36.6029Z" fill="white"/>
<path d="M35.3785 49.7502C39.5291 49.7502 42.8939 46.3787 42.8939 42.2198C42.8939 38.0609 39.5291 34.6894 35.3785 34.6894C31.2278 34.6894 27.863 38.0609 27.863 42.2198C27.863 46.3787 31.2278 49.7502 35.3785 49.7502Z" fill="white"/>
<path d="M48.435 63.5201C52.5856 63.5201 55.9504 60.1487 55.9504 55.9897C55.9504 51.8308 52.5856 48.4594 48.435 48.4594C44.2843 48.4594 40.9196 51.8308 40.9196 55.9897C40.9196 60.1487 44.2843 63.5201 48.435 63.5201Z" fill="white"/>
<path d="M61.6274 76.7389C65.7781 76.7389 69.1428 73.3674 69.1428 69.2085C69.1428 65.0496 65.7781 61.6781 61.6274 61.6781C57.4768 61.6781 54.112 65.0496 54.112 69.2085C54.112 73.3674 57.4768 76.7389 61.6274 76.7389Z" fill="white"/>
</svg>
