<svg viewBox="0 0 100 100" fill="none" xmlns="http://www.w3.org/2000/svg">
<circle cx="50" cy="50" r="50" fill="#1DC9FF"/>
<g clip-path="url(#clip0_4819_72333)">
<path d="M74.65 32.8984L67.1017 25.3501C66.8387 25.0862 66.5263 24.8769 66.1822 24.734C65.8381 24.5911 65.4692 24.5176 65.0967 24.5176C64.7241 24.5176 64.3553 24.5911 64.0112 24.734C63.6671 24.8769 63.3546 25.0862 63.0917 25.3501L40.4468 47.995C40.1831 48.2578 39.9743 48.5704 39.8325 48.9146C39.6908 49.2588 39.6189 49.6278 39.6212 50.0001V57.5484C39.6212 58.2991 39.9194 59.0191 40.4502 59.5499C40.9811 60.0808 41.701 60.379 42.4518 60.379H50.0001C50.75 60.3733 51.4686 60.0774 52.0051 59.5534L74.65 36.9085C74.9139 36.6455 75.1233 36.333 75.2662 35.9889C75.409 35.6449 75.4826 35.276 75.4826 34.9034C75.4826 34.5309 75.409 34.162 75.2662 33.818C75.1233 33.4739 74.9139 33.1614 74.65 32.8984ZM65.0967 31.3652L68.635 34.9034L66.0402 37.4982L62.502 33.9599L65.0967 31.3652ZM48.8207 54.7178H45.2824V51.1795L58.4919 37.9699L62.0302 41.5082L48.8207 54.7178ZM73.5885 50.1416V68.8708C73.5823 70.1201 73.0833 71.3165 72.1999 72.1999C71.3165 73.0833 70.1201 73.5823 68.8708 73.5885H31.1293C29.88 73.5823 28.6836 73.0833 27.8003 72.1999C26.9169 71.3165 26.4178 70.1201 26.4116 68.8708V31.1293C26.4178 29.88 26.9169 28.6836 27.8003 27.8002C28.6836 26.9168 29.88 26.4178 31.1293 26.4116H49.8585C50.6093 26.4116 51.3293 26.7098 51.8601 27.2407C52.3909 27.7715 52.6892 28.4915 52.6892 29.2422C52.6892 29.9929 52.3909 30.7129 51.8601 31.2438C51.3293 31.7746 50.6093 32.0728 49.8585 32.0728H32.0729V67.9273H67.9273V50.1416C67.9273 49.3909 68.2255 48.6709 68.7564 48.14C69.2872 47.6092 70.0072 47.311 70.7579 47.311C71.5086 47.311 72.2286 47.6092 72.7595 48.14C73.2903 48.6709 73.5885 49.3909 73.5885 50.1416Z" fill="white"/>
</g>
<defs>
<clipPath id="clip0_4819_72333">
<rect width="60.3864" height="60.3864" fill="white" transform="translate(19.8069 19.8068)"/>
</clipPath>
</defs>
</svg>
