<svg viewBox="0 0 100 100" fill="none" xmlns="http://www.w3.org/2000/svg">
<circle cx="50" cy="50" r="50" fill="#0EAD57"/>
<g clip-path="url(#clip0_4819_72337)">
<path d="M74.0603 35.4459C73.9053 35.0917 73.6817 34.7718 73.4023 34.5046C73.123 34.2373 72.7934 34.0282 72.4327 33.8891C72.069 33.76 71.6829 33.7059 71.2977 33.7302C70.9126 33.7546 70.5363 33.8568 70.1918 34.0306C69.9173 34.1677 69.6632 34.3424 69.4369 34.5496L60.6149 43.3717L57.2889 42.7112L56.6284 39.3852L65.4505 30.5631C65.6577 30.3368 65.8324 30.0828 65.9694 29.8083C66.1433 29.4637 66.2455 29.0875 66.2698 28.7023C66.2941 28.3172 66.2401 27.9311 66.111 27.5674C65.9719 27.2067 65.7627 26.8771 65.4955 26.5977C65.2283 26.3184 64.9083 26.0947 64.5541 25.9398C61.303 24.5605 57.7168 24.1723 54.2458 24.8238C50.7748 25.4753 47.5735 27.1374 45.0438 29.6017C42.514 32.066 40.7684 35.2225 40.0261 38.6753C39.2838 42.128 39.5778 45.7231 40.8713 49.0093L27.1664 60.8271L27.0013 60.9686C25.5242 62.5871 24.7278 64.7127 24.7777 66.9033C24.8277 69.094 25.7202 71.181 27.2696 72.7304C28.819 74.2799 30.9061 75.1724 33.0967 75.2223C35.2874 75.2723 37.413 74.4759 39.0314 72.9988L39.173 72.8336L50.9908 59.1287C54.277 60.4222 57.8721 60.7163 61.3248 59.9739C64.7775 59.2316 67.9341 57.4861 70.3984 54.9563C72.8626 52.4265 74.5248 49.2252 75.1763 45.7542C75.8278 42.2832 75.4395 38.6971 74.0603 35.4459ZM66.2289 51.1323C64.3456 52.9913 61.9164 54.1981 59.2972 54.5759C56.678 54.9537 54.0067 54.4826 51.6748 53.2316C51.1066 52.8953 50.438 52.77 49.7865 52.8779C49.1351 52.9857 48.5425 53.3198 48.113 53.8213L34.9506 69.0359C34.4079 69.4876 33.716 69.7202 33.0107 69.688C32.3053 69.6558 31.6375 69.3612 31.1382 68.8619C30.6389 68.3626 30.3443 67.6947 30.3121 66.9894C30.2799 66.284 30.5125 65.5921 30.9642 65.0494L46.1787 51.8871C46.6689 51.4611 46.9991 50.8807 47.1149 50.2417C47.2307 49.6027 47.1251 48.9433 46.8156 48.3724C45.7678 46.4872 45.2365 44.3587 45.2757 42.2022C45.3149 40.0457 45.9231 37.9379 47.0388 36.092C48.1544 34.2462 49.7379 32.7278 51.629 31.6906C53.5201 30.6535 55.6516 30.1343 57.8078 30.1857L51.5333 36.4366C51.2067 36.7707 50.967 37.1798 50.8354 37.6281C50.7038 38.0764 50.6842 38.5502 50.7785 39.0078L52.0994 45.6833C52.215 46.2277 52.486 46.727 52.8796 47.1205C53.2731 47.5141 53.7723 47.785 54.3167 47.9006L60.9923 49.2216C61.4499 49.3158 61.9236 49.2963 62.3719 49.1647C62.8202 49.0331 63.2294 48.7934 63.5634 48.4668L69.8144 42.1922C69.8536 43.8476 69.5561 45.4936 68.9397 47.0305C68.3234 48.5673 67.4011 49.9628 66.2289 51.1323Z" fill="white"/>
</g>
<defs>
<clipPath id="clip0_4819_72337">
<rect width="60.3864" height="60.3864" fill="white" transform="translate(19.8069 19.8068)"/>
</clipPath>
</defs>
</svg>
