<svg viewBox="0 0 100 100" fill="none" xmlns="http://www.w3.org/2000/svg">
<circle cx="50" cy="50" r="50" fill="#FD6035"/>
<g clip-path="url(#clip0_4819_72339)">
<path fill-rule="evenodd" clip-rule="evenodd" d="M68.116 41.5244C68.1097 44.1906 67.119 46.7608 65.3335 48.7426L64.7449 49.3961L65.3335 50.0495C67.119 52.0314 68.1097 54.6016 68.116 57.2677C68.1157 60.1394 66.9736 62.8933 64.9408 64.9239C62.9078 66.9547 60.1504 68.0956 57.2753 68.0956H56.2974V73.0077C56.2974 73.7923 55.9853 74.5448 55.4299 75.0996C54.8745 75.6544 54.1212 75.9661 53.3357 75.9661C52.5503 75.9661 51.7969 75.6544 51.2415 75.0996C50.6861 74.5448 50.3741 73.7923 50.3741 73.0077V68.0956H44.4787V73.0077C44.4787 73.7923 44.1667 74.5448 43.6113 75.0996C43.0559 75.6544 42.3026 75.9661 41.5171 75.9661C40.7316 75.9661 39.9783 75.6544 39.4229 75.0996C38.8675 74.5448 38.5555 73.7923 38.5555 73.0077V68.0956H33.638C32.8525 68.0956 32.0992 67.7839 31.5438 67.2291C30.9884 66.6743 30.6764 65.9218 30.6764 65.1372C30.6764 64.3525 30.9884 63.6001 31.5438 63.0453C32.0992 62.4904 32.8525 62.1788 33.638 62.1788H38.5555V36.6134H33.638C32.8525 36.6134 32.0992 36.3017 31.5438 35.7469C30.9884 35.1921 30.6764 34.4396 30.6764 33.655C30.6764 32.8704 30.9884 32.1179 31.5438 31.5631C32.0992 31.0083 32.8525 30.6966 33.638 30.6966H38.5555V25.7845C38.5555 24.9998 38.8675 24.2474 39.4229 23.6926C39.9783 23.1377 40.7316 22.826 41.5171 22.826C42.3026 22.826 43.0559 23.1377 43.6113 23.6926C44.1667 24.2474 44.4787 24.9998 44.4787 25.7845V30.6966H50.3741V25.7845C50.3741 24.9998 50.6861 24.2474 51.2415 23.6926C51.7969 23.1377 52.5503 22.826 53.3357 22.826C54.1212 22.826 54.8745 23.1377 55.4299 23.6926C55.9853 24.2474 56.2974 24.9998 56.2974 25.7845V30.6966H57.2753C60.1504 30.6966 62.9078 31.8375 64.9408 33.8683C66.9736 35.8989 68.1157 38.6528 68.116 41.5244ZM57.2753 62.1788C58.5795 62.1788 59.8302 61.6612 60.7524 60.74C61.6746 59.8188 62.1927 58.5694 62.1927 57.2666C62.1927 55.9638 61.6746 54.7144 60.7524 53.7932C59.8302 52.872 58.5795 52.3545 57.2753 52.3545H44.4787V62.1788H57.2753ZM57.2753 46.4377C58.5795 46.4377 59.8302 45.9201 60.7524 44.9989C61.6746 44.0777 62.1927 42.8283 62.1927 41.5255C62.1927 40.2228 61.6746 38.9734 60.7524 38.0522C59.8302 37.1309 58.5795 36.6134 57.2753 36.6134H44.4787V46.4377H57.2753Z" fill="white"/>
</g>
<defs>
<clipPath id="clip0_4819_72339">
<rect width="60.3864" height="60.3864" fill="white" transform="translate(19.8068 19.8068)"/>
</clipPath>
</defs>
</svg>
