<svg width="250" height="250" viewBox="0 0 250 250" fill="none" xmlns="http://www.w3.org/2000/svg">
<path d="M46.2786 75.8302C45.258 77.7815 43.8198 79.2834 41.964 80.3414C40.1063 81.3976 37.9547 81.9276 35.5033 81.9276C33.1288 81.9276 30.9116 81.3508 28.8517 80.1991C26.7899 79.0512 25.2599 77.5287 24.2562 75.6355C23.3292 77.5287 21.8367 79.0512 19.7749 80.1991C17.7168 81.3508 15.4977 81.9276 13.1213 81.9276C10.6719 81.9276 8.4996 81.3976 6.60634 80.3414C4.71496 79.2834 3.24679 77.7815 2.20746 75.8302C1.17188 73.8826 0.649414 71.6448 0.649414 69.1205V51.804H7.88724V68.7871C7.88724 70.7197 8.47338 72.2478 9.64192 73.3808C10.8105 74.5119 12.3592 75.0774 14.2917 75.0774C16.2224 75.0774 17.7524 74.5119 18.8854 73.3808C20.0165 72.2478 20.5839 70.7197 20.5839 68.7871V51.804H27.876V68.7871C27.876 70.7197 28.4696 72.2478 29.6588 73.3808C30.846 74.5119 32.4228 75.0774 34.391 75.0774C36.2468 75.0774 37.7393 74.5044 38.8723 73.3527C40.0052 72.2029 40.5708 70.6804 40.5708 68.7871V51.804H47.8086V69.1205C47.8086 71.6448 47.3011 73.8826 46.2786 75.8302Z" fill="white"/>
<path d="M85.4992 51.8048V81.5913H78.2595V76.8609C77.1846 78.492 75.8007 79.7467 74.1116 80.6194C72.4243 81.492 70.4824 81.9265 68.2932 81.9265C65.4711 81.9265 62.9936 81.2879 60.8588 80.007C58.7258 78.7261 57.0648 76.9265 55.8794 74.6063C54.6902 72.286 54.0947 69.6212 54.0947 66.6156C54.0947 63.6456 54.6902 61.0182 55.8794 58.7373C57.0648 56.4527 58.7258 54.6812 60.8588 53.419C62.9936 52.1587 65.4543 51.5276 68.2389 51.5276C70.4299 51.5276 72.3775 51.9621 74.0854 52.8366C75.7914 53.7074 77.1846 54.9602 78.2595 56.5931V51.8048H85.4992ZM75.6434 73.6568C77.1659 72.1924 78.0386 70.2542 78.2595 67.8403V65.7261C78.0386 63.3122 77.1659 61.374 75.6434 59.9059C74.121 58.4415 72.1902 57.7074 69.8532 57.7074C67.3663 57.7074 65.3419 58.5501 63.7839 60.2392C62.2258 61.9302 61.4262 64.11 61.3906 66.7842C61.4262 69.4546 62.2258 71.6362 63.7839 73.3235C65.3419 75.0164 67.3663 75.8572 69.8532 75.8572C72.1902 75.8572 74.121 75.125 75.6434 73.6568Z" fill="white"/>
<path d="M105.905 53.1134C107.629 52.0928 109.642 51.5647 111.946 51.5253V58.5422C108.863 58.3568 106.407 59.0703 104.569 60.6845C102.731 62.3006 101.811 64.4804 101.811 67.2276V81.5928H94.5751V51.8044H101.811V57.5384C102.815 55.6115 104.178 54.1358 105.905 53.1134Z" fill="white"/>
<path d="M162.502 75.8302C161.48 77.7815 160.044 79.2834 158.188 80.3414C156.328 81.3976 154.178 81.9276 151.729 81.9276C149.354 81.9276 147.135 81.3508 145.074 80.1991C143.014 79.0512 141.484 77.5287 140.48 75.6355C139.553 77.5287 138.06 79.0512 135.999 80.1991C133.939 81.3508 131.722 81.9276 129.345 81.9276C126.896 81.9276 124.723 81.3976 122.83 80.3414C120.939 79.2834 119.471 77.7815 118.431 75.8302C117.394 73.8826 116.873 71.6448 116.873 69.1205V51.804H124.111V68.7871C124.111 70.7197 124.697 72.2478 125.866 73.3808C127.036 74.5119 128.583 75.0774 130.514 75.0774C132.444 75.0774 133.976 74.5119 135.107 73.3808C136.24 72.2478 136.804 70.7197 136.804 68.7871V51.804H144.1V68.7871C144.1 70.7197 144.692 72.2478 145.881 73.3808C147.07 74.5119 148.647 75.0774 150.613 75.0774C152.469 75.0774 153.961 74.5044 155.096 73.3527C156.225 72.2029 156.796 70.6804 156.796 68.7871V51.804H164.031V69.1205C164.031 71.6448 163.525 73.8826 162.502 75.8302Z" fill="white"/>
<path d="M178.899 40.2242C179.678 41.0426 180.068 42.0819 180.068 43.3441C180.068 44.5669 179.678 45.5894 178.899 46.404C178.12 47.2205 177.137 47.6287 175.948 47.6287C174.76 47.6287 173.777 47.2205 172.998 46.404C172.219 45.5894 171.826 44.5669 171.826 43.3441C171.826 42.0819 172.219 41.0426 172.998 40.2242C173.777 39.4078 174.76 38.9995 175.948 38.9995C177.137 38.9995 178.12 39.4078 178.899 40.2242ZM172.384 51.8048H179.624V81.5913H172.384V51.8048Z" fill="white"/>
<path d="M201.927 57.9295C199.513 57.9295 197.558 58.7478 196.052 60.3808C194.551 62.0119 193.798 64.1299 193.798 66.7272C193.798 69.3995 194.551 71.5512 196.052 73.186C197.558 74.8209 199.513 75.6355 201.927 75.6355C205.491 75.6355 208.161 74.4669 209.946 72.1299L214.453 75.8583C213.12 77.7872 211.356 79.274 209.167 80.3115C206.974 81.3508 204.433 81.8714 201.537 81.8714C198.605 81.8714 195.996 81.2403 193.715 79.9782C191.433 78.7179 189.659 76.9445 188.393 74.6617C187.135 72.377 186.506 69.7534 186.506 66.7834C186.506 63.7759 187.144 61.1224 188.425 58.8209C189.706 56.5194 191.489 54.7366 193.771 53.4744C196.052 52.2122 198.678 51.583 201.65 51.583C204.359 51.583 206.779 52.0549 208.916 53.0006C211.049 53.9501 212.783 55.2928 214.12 57.0381L209.721 61.216C207.719 59.025 205.118 57.9295 201.927 57.9295Z" fill="white"/>
<path d="M240.702 81.5928L232.628 68.5647L228.064 73.3549V81.5928H220.824V40.2781H228.064V64.222L240.313 51.8624H248.663L237.639 63.3325L249.333 81.5928H240.702Z" fill="white"/>
<path d="M118.009 146.195V101.547C118.009 99.8055 116.597 98.3916 114.854 98.3916H26.9756C12.9457 98.3916 0.911958 109.365 0.655404 123.394C0.391359 137.686 11.8951 149.352 26.1273 149.352L114.854 149.35C116.597 149.35 118.009 147.938 118.009 146.195Z" fill="white"/>
<path d="M0.649979 208.128V163.48C0.649979 161.738 2.06196 160.326 3.80541 160.326L91.6837 160.325C105.714 160.325 117.747 171.298 118.004 185.326C118.268 199.617 106.764 211.285 92.532 211.285L3.80541 211.283C2.06196 211.283 0.649979 209.871 0.649979 208.128Z" fill="white"/>
<path d="M183.039 152.493V101.546C183.039 99.804 181.627 98.3901 179.884 98.3901H135.661C133.918 98.3901 132.504 99.8059 132.508 101.551L132.588 152.939C132.588 185.16 158.708 211.282 190.929 211.282C223.15 211.282 249.27 185.16 249.27 152.939L249.35 101.551C249.352 99.8059 247.938 98.3901 246.195 98.3901H201.97C200.23 98.3901 198.817 99.804 198.817 101.546V152.493C198.817 163.585 183.039 163.598 183.039 152.493Z" fill="white"/>
</svg>
